<svg width="154" height="141" viewBox="0 0 154 141" fill="none" xmlns="http://www.w3.org/2000/svg">
<path d="M85.6789 65.4549H15.5884C6.98073 65.4549 0 72.407 0 80.983V125.466C0 134.039 6.97771 141 15.5884 141H85.6758C94.2835 141 101.267 134.042 101.267 125.466V80.983C101.264 72.41 94.2865 65.4549 85.6789 65.4549ZM87.4143 112.066C84.311 112.066 81.5844 110.352 80.0539 108.029H72.8141C72.3531 108.029 71.9343 108.305 71.7505 108.725L64.8241 124.667C64.101 126.351 62.4409 127.411 60.6091 127.411C60.594 127.411 60.576 127.411 60.5579 127.411C58.708 127.411 57.0449 126.285 56.352 124.577L49.8955 108.752C49.7177 108.317 49.2959 108.038 48.8259 108.038H43.5685C41.6072 108.038 39.8597 106.759 39.224 104.913L38.0611 101.536C37.9406 101.185 37.6061 100.951 37.2326 100.957C36.859 100.963 36.5336 101.209 36.4251 101.566L35.452 104.766C34.8645 106.696 33.0809 108.038 31.0563 108.038H21.2465C19.7129 110.352 16.9924 112.072 13.8861 112.072C9.09272 112.072 5.20617 108.185 5.20617 103.406C5.20617 98.6273 9.09272 94.722 13.8861 94.722C16.9924 94.722 19.7129 96.436 21.2465 98.7563H27.239C27.7482 98.7563 28.1971 98.4291 28.3447 97.9429L32.9784 82.784C33.5569 80.8869 35.3013 79.5872 37.2958 79.5511C39.2361 79.5691 41.0739 80.7398 41.7217 82.6219L47.0303 97.9879C47.19 98.4472 47.6268 98.7623 48.1179 98.7623L52.3359 98.7804C54.2068 98.7804 55.891 99.936 56.596 101.662L59.6119 109.067C59.7414 109.386 60.0517 109.599 60.4042 109.605C60.7477 109.605 61.064 109.401 61.2056 109.085L64.4595 101.566C65.1886 99.882 66.8487 98.7804 68.6775 98.7804L80.0599 98.7563C81.5965 96.442 84.3171 94.716 87.4173 94.716C92.2167 94.716 96.1032 98.6153 96.1032 103.394C96.1032 108.173 92.2107 112.066 87.4143 112.066Z" fill="#054AC0"/>
<path d="M40.1912 59.1602H61.1123C67.391 59.1602 72.4977 54.1593 72.4977 47.9006V37.1123C72.4977 30.8567 67.391 25.8588 61.1123 25.8588H55.2101V17.4509C57.0329 16.0791 58.1627 13.9298 58.1627 11.5104C58.1627 7.36196 54.7974 4 50.6397 4C46.4759 4 43.1136 7.36196 43.1136 11.5104C43.1136 13.9298 44.2314 16.0761 46.0602 17.4509V25.8588H40.1882C33.9064 25.8588 28.7695 30.8567 28.7695 37.1123V47.9006C28.7695 54.1593 33.9094 59.1602 40.1912 59.1602Z" fill="#054AC0"/>
<path d="M146.801 90.0439V39.0549H114.816V90.0439" stroke="#054AC0" stroke-width="7" stroke-linecap="round" stroke-linejoin="round"/>
<path d="M114.816 90.0438L111.617 99.6042H150L146.801 90.0438" stroke="#054AC0" stroke-width="7" stroke-linecap="round" stroke-linejoin="round"/>
<path d="M124.411 26.3077H137.206V39.0549H124.411V26.3077Z" stroke="#054AC0" stroke-width="7" stroke-linecap="round" stroke-linejoin="round"/>
<path d="M118.014 90.0438H143.603" stroke="#054AC0" stroke-width="7" stroke-linecap="round" stroke-linejoin="round"/>
<path d="M130.809 26.3077V18.3406C130.809 17.0728 130.303 15.857 129.403 14.9605C128.504 14.0641 127.283 13.5604 126.011 13.5604C124.738 13.5604 123.518 13.0568 122.618 12.1603C121.718 11.2639 121.213 10.048 121.213 8.78021C121.213 7.51242 121.718 6.29656 122.618 5.40009C123.518 4.50363 124.738 4 126.011 4H140.404" stroke="#054AC0" stroke-width="7" stroke-linecap="round" stroke-linejoin="round"/>
</svg>
