<svg width="150" height="150" viewBox="0 0 150 150" fill="none" xmlns="http://www.w3.org/2000/svg">
<g clip-path="url(#clip0_38_2022)">
<path d="M103.642 10.9133C100.005 7.26642 94.0517 7.26642 90.4189 10.9133L88.483 12.8538C84.8457 16.5006 84.8457 22.4675 88.483 26.1095L88.6376 26.2641C85.7267 28.1437 81.3161 31.0172 76.4506 34.2983C71.9977 28.8095 66.5463 23.7282 64.0104 21.469C64.6572 18.4549 63.8322 15.1834 61.5121 12.8538L59.5762 10.9133C55.9388 7.26642 49.986 7.26642 46.3532 10.9133L2.72801 54.6462C-0.909337 58.2931 -0.909337 64.26 2.72801 67.9022L4.66393 69.8428C7.49036 72.6738 11.6995 73.2787 15.1495 71.7083C16.9587 74.2534 21.5524 80.6143 27.3834 87.9876C24.1725 91.2827 19.0352 97.4982 18.8196 103.798C18.7165 106.91 19.8087 109.718 21.9788 111.907C28.7004 118.699 48.7952 138.789 48.7952 138.789L49.3952 139.296C49.6624 139.483 53.0702 141.822 58.5917 141.822C63.1431 141.822 69.1336 140.191 75.9678 134.5C77.3928 135.536 78.3161 136.183 78.5178 136.319C79.1928 136.736 83.927 139.53 89.1862 139.53C90.8735 139.53 92.6172 139.24 94.2999 138.49C96.5451 137.486 99.3295 135.344 100.89 130.774C104.809 129.368 109.595 126.218 111.596 120.429C116.101 119.332 120.892 116.196 122.56 110.121C126.877 109.526 131.836 107.14 133.627 100.761C134.963 95.9798 133.627 91.8735 131.532 88.7189C134.668 85.3019 138.741 79.5974 139.542 72.4959C141.656 72.3132 143.723 71.4554 145.336 69.8382L147.272 67.8977C150.909 64.2508 150.909 58.2839 147.272 54.6416L103.642 10.9133ZM130.065 67.7945C131.105 73.7241 127.627 78.9973 124.918 82.0488L99.7232 58.3684L96.5968 60.5948C90.2221 65.123 82.0238 61.148 81.9583 61.1198L79.2537 59.7557L76.8914 61.6399C76.8164 61.7008 69.2604 67.6537 59.1075 68.5586C58.292 68.6336 57.5934 68.6571 56.9888 68.6571C54.4483 68.6571 53.6515 68.1508 53.6656 68.2025C53.436 67.373 54.4015 64.1761 57.7765 60.0934C61.6015 55.4715 82.2678 41.4704 95.4112 33.0566L130.065 67.7945ZM36.4486 98.97L29.6613 106.348C29.3004 105.982 28.944 105.626 28.6394 105.317C28.2831 104.956 28.1662 104.651 28.1848 104.117C28.2598 101.768 30.805 98.1401 33.3504 95.3324C34.3722 96.5513 35.4035 97.7605 36.4486 98.97ZM50.2342 126.972C49.2452 125.979 48.1624 124.9 47.0092 123.743L53.6653 116.505C54.823 117.546 55.9716 118.558 57.1104 119.543L50.2342 126.972ZM40.3768 117.105C38.9845 115.713 37.6113 114.33 36.2845 113.004L42.7578 105.963C43.6673 106.924 44.5811 107.867 45.4857 108.776C45.9262 109.221 46.3811 109.652 46.8262 110.093L40.3768 117.105ZM57.9638 132.424L64.3153 125.561C65.6885 126.672 66.9963 127.703 68.2339 128.674C63.7431 131.922 60.2653 132.546 57.9638 132.424ZM124.599 98.2295C123.976 100.456 121.946 100.897 120.507 100.915L94.3609 76.0442L87.8971 82.8361L113.584 107.267C112.974 109.933 111.128 110.96 109.436 111.326L83.6365 86.7827L77.1727 93.5746L102.555 117.719C101.622 119.927 99.7893 121.103 98.3362 121.703L72.9213 97.526L66.4575 104.318L91.7457 128.378C91.4411 129.058 91.0333 129.658 90.4753 129.911C88.783 130.689 85.2396 129.419 83.6411 128.467C83.4724 128.346 66.2463 116.299 52.1187 102.138C38.9098 88.8967 24.201 68.2629 22.2274 65.4738L58.498 29.1144C60.954 31.3457 65.1868 35.3908 68.6882 39.6141C60.7759 45.1592 53.2575 50.831 50.548 54.1074C47.8107 57.4166 41.8296 65.8353 45.3497 72.5195C47.567 76.7382 52.4653 78.5428 59.9368 77.8818C69.3537 77.0477 76.8393 72.9367 80.4485 70.579C84.2735 71.8867 91.506 73.4758 98.6261 70.1899L123.53 93.5939C124.426 94.8404 125.105 96.4295 124.599 98.2295Z" fill="#054AC0"/>
</g>
<defs>
<clipPath id="clip0_38_2022">
<rect width="150" height="150" fill="white"/>
</clipPath>
</defs>
</svg>
