<svg width="83" height="140" viewBox="0 0 83 140" fill="none" xmlns="http://www.w3.org/2000/svg">
<path d="M79.0856 133.435H76.0856V125.61C76.0856 123.797 74.6222 122.328 72.8176 122.328H69.2732V101.836V96.0853C69.2732 87.6154 65.0229 79.8478 57.9039 75.3073L49.7111 70.0814L50.1706 69.6239L57.9033 64.6914C65.0222 60.1509 69.2726 52.3833 69.2726 43.9134V17.6718H72.817C74.6216 17.6718 76.085 16.2027 76.085 14.3897V6.56433H79.085C80.8895 6.56433 82.3529 5.09523 82.3529 3.28216C82.3529 1.4691 80.8895 0 79.085 0H72.817H9.53595H3.26797C1.4634 0 0 1.4691 0 3.28216C0 5.09523 1.4634 6.56433 3.26797 6.56433H6.26797V14.3897C6.26797 16.2027 7.73137 17.6718 9.53595 17.6718H13.0804V43.914C13.0804 52.384 17.3307 60.1515 24.449 64.6921L31.2216 69.0121L32.517 70.1621L24.449 75.3079C17.3301 79.8485 13.0804 87.616 13.0804 96.086V101.837V122.328H9.53595C7.73137 122.328 6.26797 123.797 6.26797 125.61V133.436H3.26797C1.4634 133.436 0 134.905 0 136.718C0 138.531 1.4634 140 3.26797 140H9.53595H72.817H79.085C80.8895 140 82.3529 138.531 82.3529 136.718C82.3536 134.905 80.8902 133.435 79.0856 133.435ZM62.7373 96.086V97.0115L44.4451 89.7547V74.4401C44.6366 74.6003 44.8392 74.7506 45.0536 74.8871L54.4007 80.8489C59.6203 84.1783 62.7373 89.8748 62.7373 96.086ZM62.7373 17.6718V43.914C62.7373 46.6789 62.1163 49.3401 60.9706 51.738H21.3837C20.2379 49.3401 19.617 46.6789 19.617 43.9134V17.6718H62.7373ZM27.9542 80.8489L37.3 74.8878C37.5144 74.7506 37.717 74.6009 37.9092 74.4408V89.7606L19.617 97.0129V96.086C19.617 89.8748 22.7333 84.1783 27.9542 80.8489Z" fill="#054AC0"/>
</svg>
