<svg width="149" height="150" viewBox="0 0 149 150" fill="none" xmlns="http://www.w3.org/2000/svg">
<path fill-rule="evenodd" clip-rule="evenodd" d="M140.128 0.322905C139.826 0.663707 130.763 10.1694 129.047 11.9459C127.217 13.84 125.893 15.2259 121.817 19.514C119.602 21.8439 117.311 24.2428 116.727 24.845C116.142 25.4471 113.83 27.8674 111.589 30.2235C109.348 32.5796 106.589 35.4712 105.458 36.6493C104.327 37.8273 101.587 40.6975 99.3702 43.0274C97.1531 45.3573 94.8606 47.7563 94.2756 48.3584C93.6908 48.9605 91.3339 51.426 89.0382 53.8372C86.7425 56.2485 82.1676 61.0438 78.8717 64.4935C75.5759 67.9432 72.2858 71.3894 71.5605 72.1517C70.8352 72.914 70.1859 73.551 70.1174 73.5671C70.0489 73.5833 68.5877 72.6473 66.8703 71.4873C65.1529 70.3272 62.8918 68.8018 61.8455 68.0975C60.7991 67.3932 55.4487 63.7814 49.9556 60.0711C44.4625 56.3609 38.8446 52.5664 37.4713 51.6389C36.098 50.7115 34.9751 49.9045 34.9759 49.8456C34.9782 49.688 36.1873 48.0241 37.4054 46.5021C41.7279 41.1015 47.2083 36.7184 53.475 33.65C56.8058 32.0191 59.4019 31.0649 62.8918 30.1888C69.6672 28.4879 76.9276 28.3331 83.8394 29.7423C87.4663 30.4817 90.9147 31.6336 94.5804 33.33L96.0643 34.0167L97.1745 32.8817C97.7851 32.2574 100.558 29.3623 103.336 26.4481C106.907 22.7023 108.403 21.0701 108.441 20.8791C108.767 19.2389 109.666 10.8356 109.529 10.7074C109.513 10.6924 108.087 10.049 106.361 9.27762C104.635 8.50625 102.432 7.51964 101.466 7.08526C100.499 6.65078 99.66 6.32445 99.6002 6.35996C99.2989 6.53883 95.5068 10.6699 94.0981 12.3539C92.9518 13.7242 92.4315 14.278 92.2908 14.2777C92.1822 14.2774 91.4084 14.131 90.5713 13.9523C89.7343 13.7736 87.8081 13.3639 86.291 13.0419C84.7738 12.7198 83.4469 12.422 83.3423 12.3801C83.1883 12.3183 83.0189 11.8348 82.4527 9.84014C82.068 8.48512 81.4613 6.54112 81.1044 5.52014C80.7476 4.49916 80.3346 3.31045 80.1868 2.87845L79.918 2.09317L74.3422 2.09308H68.7662L68.5238 2.78325C68.3906 3.1628 67.9961 4.28735 67.6474 5.28215C67.2987 6.27695 66.6948 8.20467 66.3054 9.56597C65.9161 10.9273 65.5744 12.1159 65.5462 12.2075C65.5179 12.299 65.4014 12.3945 65.2871 12.4199C65.173 12.4453 63.1533 12.8757 60.7991 13.3765C58.445 13.8772 56.4654 14.3049 56.4003 14.327C56.3351 14.3491 55.5702 13.5224 54.7004 12.4901C53.3444 10.8806 50.1426 7.37522 49.2675 6.54207L48.991 6.27885L47.8562 6.79196C47.2322 7.07421 45.5017 7.85063 44.0107 8.51729C42.5197 9.18405 41.0858 9.82557 40.8242 9.94304C40.5626 10.0604 40.081 10.2759 39.7541 10.4216C39.2165 10.6614 39.1596 10.7139 39.1596 10.9714C39.1596 11.9338 39.6081 16.4507 39.9313 18.7433C40.2442 20.9625 40.2902 21.4676 40.1879 21.5608C40.0076 21.7251 32.6946 27.0345 32.6486 27.0345C32.6273 27.0345 31.5904 26.5377 30.3441 25.9306C28.4918 25.028 23.0322 22.6554 22.8079 22.6554C22.7751 22.6554 22.1248 23.3516 21.3627 24.2024C20.6006 25.0532 18.9856 26.8553 17.7737 28.207C16.5618 29.5588 15.5702 30.6963 15.5702 30.7347C15.5702 30.937 18.3445 35.8323 19.574 37.7995L20.9938 40.0712L18.6398 44.1672L16.2859 48.2632L15.5713 48.257C15.1784 48.2537 13.9793 48.2169 12.9068 48.1755C10.8365 48.0956 5.60134 48.2065 5.47492 48.333C5.43355 48.3744 5.16645 49.136 4.88138 50.0255C4.59631 50.9149 3.86694 53.1742 3.26075 55.046C2.65446 56.9178 2.15842 58.4901 2.15842 58.5401C2.15842 58.7035 6.34098 61.8337 8.62649 63.3809L10.8618 64.8941L10.8366 65.4081C10.8228 65.6908 10.7283 66.7146 10.6267 67.6832C10.5251 68.6518 10.3297 70.5153 10.1925 71.8242C10.0499 73.1858 9.89557 74.2516 9.83174 74.3149C9.77049 74.3758 8.9285 74.7467 7.96066 75.1389C5.3702 76.1889 4.39247 76.6177 2.49133 77.5372C1.54966 77.9928 0.592857 78.4469 0.365047 78.5466C0.0505847 78.6841 -0.0344514 78.7658 0.0116812 78.886C0.0450679 78.9731 0.157308 79.8402 0.260987 80.8129C0.364667 81.7856 0.558614 83.6095 0.691876 84.8661C1.0617 88.3516 1.19334 89.5017 1.22549 89.5258C1.25279 89.5463 2.62526 89.8713 5.48757 90.5351C6.50925 90.772 7.93955 91.0404 11.0695 91.5825L11.7528 91.7009L11.9452 92.2341C12.0511 92.5274 12.7021 94.5023 13.3921 96.6228C14.0821 98.7433 14.6661 100.531 14.6898 100.595C14.7135 100.66 13.8595 101.624 12.7917 102.737C11.1018 104.5 7.48507 108.606 7.48507 108.762C7.48507 108.792 8.01421 109.725 8.66093 110.835C9.30764 111.945 10.4902 113.989 11.2887 115.376C12.0873 116.764 12.792 117.954 12.8548 118.022C12.9477 118.122 13.3052 118.081 14.769 117.802C15.759 117.613 16.8899 117.4 17.2823 117.329C17.6747 117.258 19.2113 116.9 20.697 116.534C22.1827 116.169 23.4454 115.891 23.503 115.917C23.7032 116.009 29.6955 122.731 29.724 122.896C29.7398 122.987 29.5831 123.528 29.3757 124.098C28.3645 126.877 27.9079 128.223 27.4573 129.751C27.1871 130.667 26.8632 131.751 26.7375 132.16C26.6117 132.568 26.5097 132.975 26.5108 133.064C26.5121 133.166 27.6105 134.02 29.4724 135.368C31.1002 136.546 33.0363 137.947 33.7746 138.482C34.513 139.017 35.1762 139.457 35.2486 139.458C35.4727 139.463 39.5736 136.559 41.804 134.816C43.1847 133.737 43.9818 133.174 44.0869 133.203C44.4328 133.298 52.5271 136.923 52.5816 137.007C52.6134 137.056 52.667 137.553 52.7005 138.112C52.8093 139.917 52.9616 141.663 53.151 143.269C53.4127 145.489 53.7036 147.67 53.7432 147.71C53.7762 147.743 54.4755 147.899 56.6615 148.36C57.2631 148.487 58.59 148.767 59.6102 148.983C60.6303 149.199 62.0428 149.497 62.7491 149.645C63.4553 149.792 64.0999 149.94 64.1814 149.974C64.3762 150.053 66.5667 146.449 68.3716 143.079L69.6715 140.651L74.3325 140.626L78.9934 140.602L80.1612 142.816C80.8035 144.034 81.8713 145.93 82.5341 147.029C84.4145 150.149 84.3458 150.047 84.5192 149.978C84.6687 149.918 85.944 149.642 91.9829 148.365C93.544 148.034 94.8556 147.727 94.8976 147.682C95.004 147.568 95.6387 142.648 95.7555 141.032C95.8085 140.299 95.8936 139.206 95.9447 138.604C95.9958 138.002 96.0383 137.389 96.0391 137.243C96.0405 137.013 96.1109 136.944 96.54 136.75C99.0453 135.618 104.61 133.178 104.688 133.178C104.742 133.178 105.697 133.895 106.81 134.77C108.883 136.401 113.198 139.461 113.424 139.461C113.553 139.461 122.052 133.338 122.156 133.17C122.187 133.119 122.106 132.725 121.975 132.295C121.843 131.864 121.515 130.763 121.245 129.846C120.755 128.182 120.104 126.266 119.279 124.058L118.841 122.888L119.124 122.583C119.28 122.415 120.62 120.929 122.101 119.28C123.583 117.63 124.889 116.182 125.003 116.061L125.209 115.842L127.865 116.505C129.326 116.87 131.463 117.345 132.614 117.561C133.765 117.776 134.878 117.993 135.087 118.043C135.754 118.2 135.739 118.213 136.543 116.828C137.194 115.709 141.091 108.965 141.184 108.798C141.247 108.685 137.534 104.436 135.8 102.636C134.832 101.631 134.027 100.769 134.011 100.72C133.985 100.645 136.533 92.7231 136.836 91.9344C136.892 91.7905 136.981 91.6726 137.036 91.6726C137.385 91.6726 142.353 90.7288 143.885 90.3711C144.906 90.1331 146.104 89.8551 146.549 89.7531C146.993 89.6511 147.387 89.538 147.423 89.5017C147.489 89.435 147.587 88.6191 148.02 84.5329C148.15 83.3025 148.342 81.5035 148.445 80.5352C148.548 79.5667 148.603 78.7449 148.566 78.7089C148.38 78.5275 143.465 76.2544 141.732 75.5488C138.446 74.2106 138.776 74.3875 138.711 73.9336C138.68 73.7159 138.524 72.274 138.366 70.7295C138.207 69.1849 138.009 67.2638 137.926 66.4603C137.779 65.0483 137.78 64.9938 137.952 64.8315C138.05 64.7391 139.072 64.0298 140.223 63.2552C142.937 61.4289 146.576 58.6539 146.52 58.4535C146.428 58.1261 143.488 49.044 143.356 48.6798L143.213 48.2873L141.974 48.2187C140.458 48.1348 135.491 48.1487 133.615 48.2422L132.238 48.3108L127.976 53.8322C125.632 56.8689 123.041 60.2235 122.219 61.2866C121.397 62.3498 120.597 63.3905 120.442 63.5993L120.161 63.9788L120.323 64.6173C121.265 68.3178 121.738 72.1588 121.745 76.1557C121.751 79.6701 121.486 82.3985 120.819 85.6879C118.61 96.581 112.665 106.314 103.936 113.328C97.5459 118.462 89.9227 121.831 81.7728 123.123C79.0243 123.558 78.2144 123.611 74.2585 123.61C71.1147 123.609 70.1612 123.577 69.0745 123.438C63.1232 122.674 58.6696 121.383 53.756 118.999C51.5387 117.923 50.2902 117.219 48.4067 115.984C37.9787 109.146 30.6804 98.5465 27.9769 86.3131C27.256 83.0514 26.9429 80.0418 26.94 76.3461C26.9377 73.5667 27.0403 71.9857 27.3753 69.6347C27.712 67.2713 28.5187 63.5898 28.6998 63.5898C28.739 63.5898 31.4611 66.5563 34.749 70.1821C38.0368 73.8078 42.8445 79.1091 45.4328 81.9626C48.0211 84.8161 51.1873 88.3074 52.4688 89.7211C56.0339 93.6537 57.522 95.2922 58.0023 95.8137C58.2434 96.0755 59.9343 97.9393 61.76 99.9555C70.5802 109.696 72.3863 111.669 72.4578 111.644C72.5002 111.629 74.0212 109.689 75.8378 107.332C77.6544 104.976 79.8534 102.128 80.7245 101.002C81.5957 99.8762 87.1022 92.7436 92.9613 85.1517C103.574 71.3998 113.761 58.2024 135.315 30.2813C143.873 19.1949 146.651 15.5338 146.622 15.3808C146.564 15.0761 140.531 -0.00142784 140.468 1.0142e-07C140.438 0.00076167 140.285 0.146031 140.128 0.322905Z" fill="#054AC0"/>
</svg>
