<svg width="150" height="100" viewBox="0 0 150 100" fill="none" xmlns="http://www.w3.org/2000/svg">
<path d="M0 71.6083C3.4399 75.5994 7.25121 79.3094 11.391 82.6965C11.3783 82.3639 11.3274 82.0487 11.3274 81.7161C11.3523 75.7932 13.3318 70.0157 17.0059 65.1432C20.68 60.2706 25.8766 56.5309 31.9127 54.4157C33.0229 54.0307 33.9936 53.369 34.7152 52.5052C35.4367 51.6413 35.8805 50.6099 35.9964 49.5271C36.1123 48.4444 35.8957 47.3535 35.371 46.3777C34.8463 45.4018 34.0344 44.5798 33.027 44.0044C30.2742 42.4456 28.0041 40.265 26.4344 37.6716C24.8646 35.0781 24.0477 32.1587 24.0619 29.1929C24.048 25.7929 25.1189 22.4633 27.1427 19.6139C29.1666 16.7645 32.0552 14.5195 35.453 13.1553C38.8509 11.791 42.6098 11.3669 46.2672 11.9352C49.9245 12.5035 53.3209 14.0394 56.0383 16.3539C60.0187 14.2598 64.3811 12.846 68.9129 12.1812C66.429 9.00054 63.2719 6.31072 59.6299 4.27198C55.9878 2.23324 51.9353 0.887303 47.7137 0.314358C43.4922 -0.258586 39.188 -0.0468119 35.0576 0.937064C30.9272 1.92094 27.0552 3.65678 23.6722 6.04117C20.2892 8.42555 17.4645 11.4097 15.3663 14.8158C13.2682 18.2218 11.9396 21.9802 11.4596 25.8668C10.9797 29.7535 11.3582 33.6889 12.5727 37.4386C13.7872 41.1883 15.8128 44.6756 18.5287 47.6927C9.365 53.3154 2.77179 61.8254 0 71.6083ZM150 71.6083C147.231 61.8212 140.638 53.3066 131.471 47.681C134.178 44.6631 136.196 41.1771 137.404 37.4302C138.611 33.6833 138.985 29.7521 138.502 25.8703C138.019 21.9885 136.69 18.2353 134.592 14.8339C132.495 11.4324 129.673 8.45215 126.294 6.07025C122.916 3.68835 119.049 1.95345 114.924 0.968674C110.798 -0.0161026 106.499 -0.230644 102.282 0.337803C98.0648 0.906251 94.0152 2.24608 90.3742 4.27764C86.7331 6.30921 83.5748 8.99102 81.0871 12.1637C85.619 12.8282 89.9814 14.2421 93.9617 16.3363C95.9126 14.6918 98.2163 13.4384 100.726 12.6561C103.235 11.8738 105.895 11.5799 108.535 11.7932C111.175 12.0064 113.738 12.7221 116.06 13.8945C118.381 15.0669 120.41 16.6703 122.017 18.6022C123.624 20.534 124.774 22.7519 125.393 25.1141C126.012 27.4763 126.086 29.9308 125.611 32.3209C125.137 34.7109 124.123 36.984 122.636 38.9947C121.148 41.0055 119.22 42.7097 116.973 43.9986C115.966 44.574 115.154 45.396 114.629 46.3718C114.104 47.3477 113.888 48.4386 114.004 49.5213C114.119 50.604 114.563 51.6355 115.285 52.4993C116.006 53.3631 116.977 54.0249 118.087 54.4099C124.124 56.5254 129.322 60.266 132.996 65.1397C136.67 70.0134 138.649 75.7922 138.673 81.7161C138.673 82.0487 138.622 82.3639 138.609 82.6907C142.748 79.3054 146.56 75.5974 150 71.6083Z" fill="#054AC0"/>
<path d="M119.278 95.0453C118.586 89.0563 116.468 83.2794 113.074 78.1225C109.68 72.9656 105.092 68.5545 99.6346 65.2005C104.316 59.9926 106.864 53.4484 106.836 46.7006C106.833 42.0254 105.605 37.4192 103.254 33.27C100.903 29.1208 97.499 25.5501 93.3282 22.8585C89.1575 20.1669 84.3421 18.4333 79.2877 17.8036C74.2333 17.1738 69.0877 17.6665 64.2844 19.2401C59.4811 20.8136 55.1607 23.422 51.6869 26.8455C48.2131 30.2691 45.6877 34.4075 44.3233 38.9124C42.9589 43.4173 42.7955 48.1567 43.8469 52.7316C44.8983 57.3064 47.1336 61.5828 50.3647 65.2005C44.9071 68.5545 40.3194 72.9656 36.9253 78.1225C33.5312 83.2794 31.4135 89.0563 30.7217 95.0453C34.7636 96.97 38.9514 98.6259 43.2525 100C43.2397 99.7374 43.1633 99.4923 43.1633 99.2238C43.19 93.3013 45.1703 87.5246 48.8441 82.6523C52.5179 77.78 57.7136 74.04 63.7487 71.9234C64.8604 71.5391 65.8327 70.8774 66.5555 70.013C67.2783 69.1487 67.7228 68.1162 67.8388 67.0323C67.9547 65.9485 67.7374 64.8565 67.2115 63.88C66.6856 62.9034 65.8721 62.0812 64.8629 61.5063C62.1093 59.9497 59.8386 57.7704 58.2686 55.1777C56.6987 52.5849 55.8823 49.6658 55.8978 46.7006C55.8978 42.0573 57.9103 37.6041 61.4926 34.3208C65.0749 31.0374 69.9335 29.1929 74.9996 29.1929C80.0657 29.1929 84.9244 31.0374 88.5066 34.3208C92.0889 37.6041 94.1014 42.0573 94.1014 46.7006C94.117 49.6658 93.3006 52.5849 91.7307 55.1777C90.1607 57.7704 87.8899 59.9497 85.1363 61.5063C84.1272 62.0812 83.3136 62.9034 82.7877 63.88C82.2618 64.8565 82.0446 65.9485 82.1605 67.0323C82.2764 68.1162 82.721 69.1487 83.4438 70.013C84.1666 70.8774 85.1388 71.5391 86.2506 71.9234C92.2857 74.04 97.4813 77.78 101.155 82.6523C104.829 87.5246 106.809 93.3013 106.836 99.2238C106.836 99.4923 106.76 99.7374 106.753 100C111.052 98.6257 115.238 96.9699 119.278 95.0453Z" fill="#054AC0"/>
</svg>
