<svg width="150" height="150" viewBox="0 0 150 150" fill="none" xmlns="http://www.w3.org/2000/svg">
<path fill-rule="evenodd" clip-rule="evenodd" d="M138.497 32.6719L131.185 30.9469L111.422 50.5969L100.228 39.1969L119.503 18.975L117.816 11.55C113.743 10.1873 109.482 9.46622 105.188 9.41248C100.503 9.34044 95.8529 10.234 91.5283 12.0375C87.3527 13.9276 83.5783 16.6008 80.4096 19.9125C76.8822 23.2538 74.0887 27.2926 72.2064 31.7719C68.5826 40.6864 68.5826 50.6636 72.2064 59.5781C52.6618 78.8062 33.3695 98.2891 14.3346 118.022C12.3658 120.6 11.4283 123.816 11.6721 127.05C11.8642 130.529 13.4286 133.789 16.0221 136.116C17.1846 137.381 18.5721 138.431 20.1189 139.191C21.7127 139.894 23.4283 140.297 25.1627 140.381C28.1252 140.325 30.9658 139.2 33.1689 137.222C47.6814 123.562 75.4877 95.5031 91.2846 79.0594C95.569 80.8781 100.172 81.8156 104.822 81.8062C109.503 81.8025 114.135 80.8607 118.446 79.0363C122.757 77.2119 126.658 74.542 129.919 71.1844C136.618 64.3524 140.359 55.1588 140.335 45.5906C140.443 41.2122 139.822 36.8464 138.497 32.6719ZM27.4971 130.575C27.1362 130.895 26.7013 131.121 26.2314 131.231C25.7693 131.311 25.2968 131.311 24.8346 131.231C24.35 131.157 23.8884 130.975 23.4846 130.697C23.0512 130.443 22.6848 130.09 22.4158 129.666C21.1033 128.325 19.8752 125.775 21.1033 124.341C33.9471 110.681 60.3939 83.9812 76.9314 67.6594C77.8689 68.8969 78.9002 70.0781 80.0064 71.1844C81.1127 72.3375 82.3033 73.4062 83.5689 74.3812C67.5752 90.7875 41.4939 117.169 27.5064 130.575H27.4971ZM131.728 45.5906C131.747 52.7625 128.953 59.6531 123.928 64.7906C118.914 69.7096 112.17 72.4652 105.146 72.4652C98.1212 72.4652 91.3772 69.7096 86.3627 64.7906C82.6876 60.9553 80.177 56.1552 79.1231 50.9489C78.0692 45.7425 78.5154 40.3439 80.4096 35.3812C81.6704 32.0037 83.6262 28.9285 86.1503 26.3543C88.6743 23.7802 91.7106 21.7644 95.0627 20.4375C98.2454 19.1054 101.662 18.4232 105.113 18.4312H107.494L90.4596 35.9906V42.5156L108.225 60.1969H114.413L131.728 43.1719V45.5906ZM30.3752 62.7H44.7283L51.3377 69.4219L57.6939 63.1031L51.4596 56.7469V56.3437L51.9939 40.8844L49.9314 36.7875L23.1189 19.1437L17.5783 19.7625L9.7877 27.7219L9.16895 33.3375L26.4002 60.6937L30.3752 62.7094V62.7ZM21.5158 28.65L43.2096 42.9375L42.8439 53.4656H32.7564L18.7689 31.3219L21.5158 28.65ZM88.1252 93.9L94.444 87.5906L123.563 117.45C126.015 120.028 127.383 123.45 127.383 127.008C127.383 130.566 126.015 133.988 123.563 136.566C121.718 138.459 119.347 139.753 116.757 140.28C114.167 140.807 111.478 140.541 109.041 139.519C107.485 138.829 106.09 137.823 104.944 136.566L75.4877 106.537L81.8533 100.181L111.216 130.125C111.611 130.56 112.102 130.898 112.65 131.109C113.729 131.548 114.937 131.548 116.016 131.109C116.564 130.897 117.055 130.56 117.45 130.125C117.861 129.718 118.18 129.23 118.388 128.691C118.603 128.141 118.717 127.556 118.725 126.966C118.716 126.376 118.605 125.792 118.397 125.241C118.189 124.702 117.87 124.213 117.46 123.806L88.1252 93.9Z" fill="#054AC0"/>
</svg>
